<?xml version="1.0" encoding="UTF-8" standalone="no"?>
<svg
   xmlns:dc="http://purl.org/dc/elements/1.1/"
   xmlns:cc="http://creativecommons.org/ns#"
   xmlns:rdf="http://www.w3.org/1999/02/22-rdf-syntax-ns#"
   xmlns:svg="http://www.w3.org/2000/svg"
   xmlns="http://www.w3.org/2000/svg"
   xmlns:sodipodi="http://sodipodi.sourceforge.net/DTD/sodipodi-0.dtd"
   xmlns:inkscape="http://www.inkscape.org/namespaces/inkscape"
   version="1.1"
   id="svg2"
   xml:space="preserve"
   width="1440"
   height="1440"
   viewBox="0 0 1440 1440"
   sodipodi:docname="Ava inverted.ai"><metadata
     id="metadata8"><rdf:RDF><cc:Work
         rdf:about=""><dc:format>image/svg+xml</dc:format><dc:type
           rdf:resource="http://purl.org/dc/dcmitype/StillImage" /></cc:Work></rdf:RDF></metadata><defs
     id="defs6"><clipPath
       clipPathUnits="userSpaceOnUse"
       id="clipPath20"><path
         d="M 0,1080 H 1080 V 0 H 0 Z"
         id="path18" /></clipPath><clipPath
       clipPathUnits="userSpaceOnUse"
       id="clipPath32"><path
         d="m 49.422,849.158 c 0,-53.587 43.439,-97.028 97.027,-97.028 v 0 c 53.587,0 97.028,43.441 97.028,97.028 v 0 c 0,53.587 -43.441,97.027 -97.028,97.027 v 0 c -53.588,0 -97.027,-43.44 -97.027,-97.027"
         id="path30" /></clipPath><clipPath
       clipPathUnits="userSpaceOnUse"
       id="clipPath42"><path
         d="M 0,0.002 H 1080 V 1080 H 0 Z"
         id="path40" /></clipPath></defs><sodipodi:namedview
     pagecolor="#ffffff"
     bordercolor="#666666"
     borderopacity="1"
     objecttolerance="10"
     gridtolerance="10"
     guidetolerance="10"
     inkscape:pageopacity="0"
     inkscape:pageshadow="2"
     inkscape:window-width="640"
     inkscape:window-height="480"
     id="namedview4" /><g
     id="g10"
     inkscape:groupmode="layer"
     inkscape:label="Ava inverted"
     transform="matrix(1.3333333,0,0,-1.3333333,0,1440)"><path
       d="M 1059.564,67.434 H 11.117 v 979.449 h 1048.447 z"
       style="fill:#a9abad;fill-opacity:0;fill-rule:nonzero;stroke:none"
       id="path12" /><g
       id="g14"><g
         id="g16"
         clip-path="url(#clipPath20)"><g
           id="g22"
           transform="translate(49.4219,849.1582)"><path
             d="m 0,0 c 0,-53.587 43.439,-97.028 97.027,-97.028 53.587,0 97.028,43.441 97.028,97.028 0,53.587 -43.441,97.027 -97.028,97.027 C 43.439,97.027 0,53.587 0,0"
             style="fill:#ffffff;fill-opacity:1;fill-rule:nonzero;stroke:none"
             id="path24" /></g></g></g><g
       id="g26"><g
         id="g28"
         clip-path="url(#clipPath32)"><path
           d="M 49.422,946.185 H 243.477 V 752.13 H 49.422 Z"
           style="fill:#ffffff;fill-opacity:1;fill-rule:nonzero;stroke:none"
           id="path34" /></g></g><g
       id="g36"><g
         id="g38"
         clip-path="url(#clipPath42)"><g
           id="g44"
           transform="translate(243.4766,849.1582)"><path
             d="m 0,0 h 2.5 c -0.002,-54.969 -44.559,-99.526 -99.527,-99.528 -54.969,0.002 -99.526,44.559 -99.528,99.528 0.002,54.968 44.559,99.525 99.528,99.527 C -42.059,99.525 2.498,54.968 2.5,0 H 0 -2.5 C -2.595,52.204 -44.822,94.433 -97.027,94.527 -149.232,94.433 -191.461,52.204 -191.555,0 c 0.094,-52.206 42.323,-94.434 94.528,-94.528 C -44.822,-94.434 -2.595,-52.206 -2.5,0 Z"
             style="fill:#ffffff;fill-opacity:1;fill-rule:nonzero;stroke:none"
             id="path46" /></g><g
           id="g48"
           transform="translate(243.4766,749.6304)"><path
             d="M 0,0 H -201.506 V -450.281 H 0 v -5 H -206.506 V 5 H 0 Z"
             style="fill:#ffffff;fill-opacity:1;fill-rule:nonzero;stroke:none"
             id="path50" /></g></g></g><text
       transform="matrix(1,0,0,-1,49.4209,318.249)"
       style="font-variant:normal;font-weight:normal;font-stretch:normal;font-size:520.426px;font-family:'ITC Avant Garde Gothic';-inkscape-font-specification:AvantGarde-Book;writing-mode:lr-tb;fill:#ffffff;fill-opacity:1;fill-rule:nonzero;stroke:none"
       id="text54"><tspan
         x="0 322.14359 624.51099"
         y="0"
         sodipodi:role="line"
         id="tspan52">AVA</tspan></text></g></svg>
