<svg id="SvgjsSvg1001" width="288" height="288" xmlns="http://www.w3.org/2000/svg" version="1.1" xmlns:xlink="http://www.w3.org/1999/xlink" xmlns:svgjs="http://svgjs.com/svgjs"><defs id="SvgjsDefs1002"></defs><g id="SvgjsG1008" transform="matrix(1,0,0,1,0,0)"><svg xmlns="http://www.w3.org/2000/svg" width="288" height="288" enable-background="new 0 0 512 512" viewBox="0 0 512 512"><path d="m437.02 74.98c-48.352-48.351-112.64-74.98-181.02-74.98-24.697 0-49.119 3.512-72.585 10.438-3.973 1.173-6.243 5.344-5.07 9.316 1.173 3.973 5.346 6.241 9.316 5.07 19.71-5.817 40.141-9.068 60.839-9.702v18.149c-54.223 1.781-105.088 22.85-144.689 59.932l-12.874-12.872c19.95-18.755 43.284-34.286 69.344-45.576 3.801-1.647 5.547-6.063 3.9-9.863-1.646-3.8-6.062-5.548-9.863-3.9-93.745 40.614-154.318 132.86-154.318 235.008 0 68.38 26.629 132.668 74.98 181.02 48.352 48.351 112.64 74.98 181.02 74.98s132.668-26.629 181.02-74.98c48.351-48.352 74.98-112.64 74.98-181.02s-26.629-132.668-74.98-181.02zm-5.476 345.958-12.748-12.748c37.082-39.601 58.151-90.466 59.932-144.689h18.144c-1.868 60.796-26.362 115.99-65.328 157.437zm-416.416-157.438h18.144c1.781 54.223 22.85 105.088 59.932 144.689l-12.748 12.748c-38.966-41.446-63.459-96.64-65.328-157.437zm65.21-172.556 12.867 12.867c-37.083 39.601-58.152 90.466-59.933 144.689h-18.147c1.846-59.748 25.678-115.456 65.213-157.556zm175.662-42.811c114.618 0 207.867 93.249 207.867 207.867s-93.249 207.867-207.867 207.867-207.867-93.249-207.867-207.867 93.249-207.867 207.867-207.867zm152.189 45.071c-39.601-37.082-90.466-58.151-144.689-59.932v-18.144c60.797 1.869 115.99 26.362 157.438 65.328zm-304.378 325.592c39.601 37.082 90.466 58.151 144.689 59.932v18.144c-60.797-1.869-115.99-26.362-157.438-65.328zm159.689 59.932c54.223-1.781 105.088-22.85 144.689-59.932l12.748 12.748c-41.447 38.966-96.641 63.459-157.438 65.328v-18.144zm215.228-230.228c-1.781-54.223-22.85-105.088-59.932-144.689l12.748-12.748c38.966 41.447 63.459 96.641 65.328 157.438h-18.144z" fill="#f26522" class="color000 svgShape"></path><path d="m66.267 256c0 104.619 85.114 189.733 189.733 189.733s189.733-85.114 189.733-189.733-85.114-189.733-189.733-189.733c-16.876 0-33.617 2.218-49.759 6.594-3.998 1.083-6.36 5.203-5.277 9.201s5.205 6.361 9.201 5.277c14.863-4.029 30.284-6.071 45.835-6.071 96.348 0 174.733 78.385 174.733 174.733s-78.385 174.732-174.733 174.732-174.733-78.385-174.733-174.733c0-68.054 39.968-130.404 101.824-158.844 3.763-1.73 5.411-6.184 3.681-9.948-1.73-3.763-6.181-5.411-9.948-3.681-32.528 14.957-60.103 38.741-79.743 68.783-20.159 30.836-30.814 66.691-30.814 103.69z" fill="#f26522" class="color000 svgShape"></path><path fill="#f26522" d="m256 280.067c18.702 0 33.917 15.215 33.917 33.917s-15.215 33.916-33.917 33.916-33.917-15.215-33.917-33.917c0-13.271-10.796-24.067-24.067-24.067s-24.066 10.796-24.066 24.067c0 18.679 6.473 36.968 18.227 51.499 10.369 12.818 24.445 22.273 40.084 27.023 1.899 11.388 11.821 20.095 23.739 20.095s21.84-8.707 23.739-20.095c15.639-4.75 29.715-14.205 40.084-27.023 11.753-14.53 18.227-32.82 18.227-51.499 0-45.243-36.808-82.05-82.05-82.05-18.702 0-33.917-15.215-33.917-33.917s15.215-33.916 33.917-33.916 33.917 15.215 33.917 33.917c0 13.27 10.796 24.067 24.067 24.067s24.066-10.796 24.066-24.067c0-18.679-6.473-36.968-18.227-51.499-10.369-12.818-24.445-22.273-40.084-27.023-1.899-11.388-11.821-20.095-23.739-20.095s-21.84 8.707-23.739 20.095c-15.639 4.751-29.715 14.205-40.084 27.023-11.754 14.53-18.227 32.82-18.227 51.499 0 45.242 36.808 82.05 82.05 82.05zm-14.9-147.409c3.413-.778 5.834-3.812 5.834-7.312v-1.878c0-4.999 4.067-9.067 9.067-9.067s9.067 4.067 9.067 9.067v1.878c0 3.5 2.421 6.535 5.833 7.312 30.217 6.886 52.149 34.374 52.149 65.359 0 4.999-4.067 9.067-9.066 9.067-5 0-9.067-4.067-9.067-9.067 0-26.973-21.944-48.917-48.917-48.917s-48.917 21.944-48.917 48.917 21.944 48.917 48.917 48.917c36.971 0 67.05 30.079 67.05 67.05 0 30.985-21.932 58.473-52.149 65.359-3.413.778-5.833 3.812-5.833 7.312v1.878c0 5-4.067 9.067-9.067 9.067-4.999 0-9.067-4.067-9.067-9.067v-1.878c0-3.5-2.421-6.535-5.834-7.312-30.217-6.886-52.149-34.374-52.149-65.359 0-5 4.067-9.067 9.066-9.067s9.067 4.067 9.067 9.067c0 26.973 21.944 48.917 48.917 48.917s48.917-21.944 48.917-48.917-21.945-48.917-48.918-48.917c-36.971 0-67.05-30.079-67.05-67.05 0-30.986 21.932-58.473 52.15-65.359z" class="colorf26522 svgShape"></path></svg></g></svg>