<svg id="SvgjsSvg1026" width="288" height="288" xmlns="http://www.w3.org/2000/svg" version="1.1" xmlns:xlink="http://www.w3.org/1999/xlink" xmlns:svgjs="http://svgjs.com/svgjs"><defs id="SvgjsDefs1027"></defs><g id="SvgjsG1028"><svg xmlns="http://www.w3.org/2000/svg" width="288" height="288" enable-background="new 0 0 512 512" viewBox="0 0 512 512"><path d="m504.5 300.917h-56.892c-1.991 0-3.611-1.621-3.611-3.612v-63.725c0-4.142-3.357-7.5-7.5-7.5s-7.5 3.358-7.5 7.5v33.575h-8.403c-6.797 0-11.633-3.659-24.214-14.142-.826-1.009-67.48-61.772-67.48-61.772-25.46-23.203-45.093-18.95-57.062-11.306l-9.478 6.016c-13.276 8.456-28.474 11.587-40.655 8.373-8.219-2.167-14.6-7.149-18.453-14.41l-.308-.579c-.633-1.189-1.389-2.608-1.74-3.461 2.01-2.587 47.082-34.853 47.082-34.853l77.375-6.211c15.522-1.236 30.009 7.471 44 15.889 13.071 7.865 26.587 15.997 41.211 15.997h18.126v31.761c0 4.142 3.357 7.5 7.5 7.5s7.5-3.358 7.5-7.5v-61.967c0-1.992 1.62-3.612 3.611-3.612h56.891c4.143 0 7.5-3.358 7.5-7.5s-3.357-7.5-7.5-7.5h-56.892c-10.263 0-18.611 8.35-18.611 18.612v15.206h-18.126c-10.459 0-21.64-6.728-33.478-13.85-15.271-9.189-32.569-19.596-52.928-17.989l-78.067 6.267c-55.745-16.829-87.923-1.827-111.463 9.168-9.892 4.62-17.705 8.269-24.595 8.269h-27.365v-7.071c0-10.263-8.349-18.612-18.611-18.612h-56.864c-4.143 0-7.5 3.358-7.5 7.5s3.357 7.5 7.5 7.5h56.863c1.991 0 3.611 1.621 3.611 3.612v61.967c0 4.142 3.357 7.5 7.5 7.5s7.5-3.358 7.5-7.5v-39.896h27.366c10.22 0 19.822-4.485 30.941-9.678 20.38-9.517 45.242-21.106 87.006-11.996l-19.246 13.774c-12.578 9.009-17.983 13.128-20.822 17.653-4.402 7.018-1.275 12.89 1.483 18.071l.3.564c5.865 11.051 15.505 18.616 27.876 21.879 16.391 4.323 35.545.598 52.529-10.219l9.485-6.021c11.008-7.03 24.096-3.753 38.908 9.745 0 0 66.34 60.648 66.419 60.743 1.348 1.895 1.778 3.94 1.276 6.104-.822 3.544-3.962 6.59-8.001 7.762-6.259 1.813-13.469-.893-20.3-7.628-.038-.038-.08-.069-.118-.106-.035-.033-.065-.069-.101-.102l-28.119-25.569c-3.066-2.787-7.81-2.562-10.595.503-2.787 3.065-2.562 7.808.503 10.595l27.417 24.931c3.145 4.97-.732 10.31-3.32 12.497-1.702 1.439-7.692 5.688-13.34-.106-.056-.058-.117-.108-.175-.164-.051-.049-.097-.103-.15-.151l-28.715-26.108c-3.066-2.787-7.81-2.562-10.595.504-2.787 3.065-2.562 7.808.503 10.595l27.586 25.082c2.363 6.015-3.035 10.42-4.201 11.279-3.32 2.447-10.415 5.111-15.951-.436-.042-.043-.089-.079-.132-.12-.042-.04-.079-.084-.123-.124l-11.254-10.262c-3.061-2.79-7.804-2.573-10.596.489-2.791 3.061-2.572 7.804.488 10.595l10.848 9.891c4.189 4.994-.717 10.562-1.759 11.639-2.923 3.021-9.347 6.66-15.791 2.429-3.305-7-9.277-12.249-16.506-14.22-.422-.115-.874-.226-1.356-.327 1.371-3.582 2.043-7.439 1.949-11.401-.189-7.987-3.465-15.406-9.216-20.883-3.977-3.799-8.821-6.367-14.074-7.526 7.569-11.783 5.992-27.699-4.502-37.725-10.523-10.02-26.524-10.837-37.935-2.688-1.408-5.188-4.201-9.902-8.177-13.688-5.74-5.484-13.318-8.399-21.281-8.212-7.977.188-15.39 3.452-20.875 9.194l-25.433 26.652c-3.996 4.197-6.521 9.264-7.604 14.562l-22.522-.017v-37.236c0-4.142-3.357-7.5-7.5-7.5s-7.5 3.358-7.5 7.5v63.725c0 1.958-1.653 3.612-3.611 3.612h-56.861c-4.143 0-7.5 3.358-7.5 7.5s3.357 7.5 7.5 7.5h56.863c10.263 0 18.611-8.35 18.611-18.612v-11.487l23.287.018c1.461 4.656 4.081 9.016 7.857 12.612 5.74 5.483 13.303 8.408 21.295 8.211.61-.014 1.219-.047 1.822-.097-.31 8.249 2.776 16.592 9.207 22.735 5.755 5.481 13.319 8.388 21.301 8.2.609-.015 1.216-.047 1.818-.098-.304 8.249 2.787 16.582 9.215 22.703 5.741 5.484 13.332 8.391 21.295 8.212.893-.021 1.777-.081 2.653-.177.222 7.112 3.161 13.707 8.281 18.582 5.01 4.788 11.56 7.403 18.509 7.402.217 0 .437-.002.654-.008 7.193-.169 13.872-3.116 18.801-8.293l15.01-15.74c4.843-4.539 7.896-10.253 8.906-16.341 1.244.183 2.486.277 3.719.277 7.828 0 15.285-3.556 20.475-8.922 4.161-4.302 6.646-9.292 7.415-14.319 6.487.533 13.266-1.349 19.181-5.708 5.571-4.106 9.117-9.526 10.397-15.329 6.606.833 13.562-1.225 19.473-6.22 4.137-3.497 7.386-8.259 8.915-13.505 6.733 2.724 13.671 3.233 20.214 1.335 8.379-2.43 14.925-8.506 17.656-16.172 6.56 4.471 12.589 6.979 20.263 6.979h8.403v15.149c0 10.263 8.349 18.612 18.611 18.612h56.893c4.143 0 7.5-3.358 7.5-7.5s-3.357-7.499-7.5-7.499zm-359.046-13.811c-2.718 2.845-6.409 4.463-10.394 4.557-3.968.103-7.74-1.348-10.59-4.07-5.922-5.64-6.149-15.05-.512-20.97l25.424-26.644c2.718-2.845 6.404-4.463 10.38-4.557 3.951-.083 7.727 1.349 10.575 4.071 2.855 2.718 4.479 6.406 4.573 10.383.094 3.968-1.348 7.717-4.059 10.555l-.002.001c-.002.002-.004.005-.006.007zm21.927 35.396c-3.96.083-7.74-1.349-10.586-4.059-5.92-5.654-6.142-15.064-.486-20.983l39.166-41.095c5.646-5.909 15.059-6.128 20.975-.495 5.909 5.646 6.128 15.06.488 20.983l-39.172 41.071c0 .001-.001.001-.001.002-.001.002-.003.003-.004.004-2.718 2.852-6.404 4.476-10.38 4.572zm32.338 30.817c-3.985.103-7.741-1.349-10.59-4.07-5.922-5.64-6.148-15.05-.506-20.976.001-.001.002-.002.003-.003l25.476-26.696c2.708-2.831 6.376-4.441 10.332-4.535 3.991-.066 7.734 1.353 10.592 4.081 2.854 2.719 4.479 6.406 4.572 10.383.094 3.968-1.348 7.717-4.066 10.563l-25.42 26.695c-2.717 2.846-6.409 4.464-10.393 4.558zm53.904 5.91c-.118.109-15.513 16.245-15.513 16.245-2.166 2.275-5.112 3.57-8.295 3.645-3.19.063-6.18-1.077-8.456-3.252-2.275-2.167-3.57-5.113-3.645-8.295-.075-3.174 1.072-6.169 3.23-8.434.004-.005.009-.009.014-.014.002-.002.003-.004.005-.005.001-.001.003-.003.004-.004l15.124-15.887c4.807-4.935 9.77-7.02 13.964-5.879 3.696 1.008 6.768 4.457 7.824 8.786.683 2.795 1.037 8.213-4.256 13.094z" fill="#f26522" class="color000 svgShape"></path></svg></g></svg>