<svg id="SvgjsSvg1020" width="288" height="288" xmlns="http://www.w3.org/2000/svg" version="1.1" xmlns:xlink="http://www.w3.org/1999/xlink" xmlns:svgjs="http://svgjs.com/svgjs"><defs id="SvgjsDefs1021"></defs><g id="SvgjsG1022"><svg xmlns="http://www.w3.org/2000/svg" width="288" height="288" enable-background="new 0 0 512 512" viewBox="0 0 512 512"><path d="m458.823 349.279c0-35.002-18.864-65.677-46.955-82.408 4.208-18.699.254-38.102-10.648-53.547 3.915-20.052 4.247-40.824.799-61.227-.033-.193 13.029-16.178 12.513-39.534-.4-18.09-6.922-35.104-19.715-47.898l-.227-.227 3.392-5.332c4.758-7.479 3.704-17.08-2.564-23.348l-16.387-16.388c-6.269-6.268-15.869-7.323-23.348-2.564l-4.142 2.635c-12.761-12.615-29.687-19.541-47.605-19.44-14.525.064-28.306 4.695-39.74 13.193-20.136-3.567-40.792-3.499-60.908.201-11.201-7.963-24.541-12.3-38.581-12.363-.103 0-.204 0-.307 0-17.81 0-34.547 6.873-47.227 19.369l-5.652-3.595c-7.48-4.758-17.08-3.704-23.349 2.564l-16.387 16.387c-6.267 6.269-7.321 15.868-2.564 23.347l3.236 5.087c-11.851 12.606-18.325 28.976-18.249 46.358.064 14.328 4.578 27.928 12.857 39.269-3.599 19.724-3.714 39.963-.329 59.718-8.736 11.53-13.494 25.505-13.559 40.242-.078 17.55 7.443 35.227 19.569 47.95l-3.525 5.542c-4.758 7.478-3.703 17.079 2.565 23.347l16.386 16.387c8.576 9.013 21.047 5.519 29.61-1.419l.058.058c12.723 12.722 29.612 19.717 47.592 19.717 14.589.002 28.477-4.618 39.973-13.142 9.551 1.636 19.221 2.471 28.896 2.471 10.631-.001 21.266-.991 31.74-2.969.364.262.727.526 1.096.781-.284 30.18 13.638 57.421 35.43 75.135v77.058c0 4.33 2.411 8.211 6.293 10.128 3.859 1.909 8.418 1.484 11.867-1.157l42.248-32.324 42.248 32.324c3.439 2.631 7.986 3.072 11.867 1.157 3.882-1.917 6.293-5.798 6.293-10.128v-77.057c21.61-17.591 35.44-44.388 35.44-74.358zm-60.663-89.159c-3.737-1.48-7.589-2.729-11.538-3.735 3.546-7.133 6.581-14.492 9.079-22.021 2.924 8.163 3.813 17.005 2.459 25.756zm-129.267 70.828c-8.929-9.445-21.467-14.905-34.506-14.441-12.823.292-24.382 6.422-32.912 15.817-28.768-6.244-55.706-20.535-77.042-41.871-9.221-9.221-17.03-19.325-23.443-30.038l7.679-7.677c9.586-9.586 19.94-18.465 30.776-26.391l17.165-12.556c4.154 9.694 10.163 18.722 17.963 26.523 7.859 7.858 16.901 13.819 26.55 17.927l-12.583 17.202c-4.416 6.037-9.17 11.979-14.13 17.658-2.676 3.065-2.361 7.719.703 10.395 3.054 2.667 7.709 2.37 10.395-.703 5.237-5.998 10.259-12.273 14.925-18.652l15.479-21.162c6.051 1.34 12.217 2.034 18.388 2.034 6.17 0 12.337-.694 18.387-2.034l15.479 21.162c3.965 5.422 8.191 10.757 12.59 15.928-5.633 9.374-9.706 19.788-11.863 30.879zm-189.162-165.484c2.479 4.618 3.745 9.856 3.57 15.179-.158 4.791-1.442 9.394-3.706 13.493-.828-9.539-.788-19.14.136-28.672zm3.91 47.101c19.477-17.231 18.78-49.724-.749-66.642 2.455-10.805 6.072-21.395 10.855-31.571l4.502 4.502c10.115 10.115 21.048 19.49 32.497 27.864l21.094 15.429c-2.751 12.245-2.701 24.835-.002 36.877-17.773 12.882-38.333 27.505-53.587 43.292l-4.503 4.502c-5.012-10.662-8.75-21.778-11.206-33.12.364-.378.722-.762 1.099-1.133zm70.831-165.289 7.678 7.679c9.585 9.584 18.464 19.938 26.39 30.775l12.562 17.175c-7.28 3.112-14.143 7.25-20.364 12.363-3.143 2.583-3.597 7.225-1.014 10.368 2.582 3.143 7.225 3.597 10.368 1.014 27.817-22.857 68.017-20.868 93.514 4.629 27.189 27.188 27.189 71.427 0 98.615-27.189 27.191-71.428 27.189-98.615 0-21.355-21.354-26.565-53.8-12.963-80.736 1.833-3.633.376-8.063-3.256-9.897-3.635-1.833-8.063-.376-9.897 3.256-.812 1.608-1.553 3.237-2.255 4.876l-17.177-12.564c-13.712-9.876-26.593-21.897-38.454-34.07 6.414-10.713 14.223-20.817 23.443-30.038 9.222-9.222 19.327-17.031 30.04-23.445zm47.447-15.779c17.762 18.821 49.834 17.182 66.306-2.488 11.06 2.457 21.901 6.133 32.308 11.025l-4.501 4.502c-10.118 10.117-19.493 21.05-27.865 32.496l-15.455 21.128c-4.74-1.055-9.589-1.723-14.512-1.95-7.569-.353-15.066.323-22.321 1.939l-15.446-21.117c-9.559-13.157-20.652-25.561-32.366-36.997 10.136-4.764 20.683-8.371 31.444-10.826.819.738 1.628 1.494 2.408 2.288zm165.709 69.241-7.698 7.698c-9.587 9.588-19.941 18.467-30.775 26.391l-17.202 12.583c-4.108-9.649-10.069-18.691-17.927-26.55-7.706-7.705-16.724-13.75-26.538-17.944l12.571-17.186c7.926-10.836 16.806-21.191 26.391-30.775l7.678-7.678c10.713 6.414 20.817 14.222 30.038 23.443 9.096 9.096 16.943 19.148 23.462 30.018zm-78.022 186.941c-3.311-4.004-6.514-8.091-9.547-12.238l-12.583-17.202c9.649-4.108 18.691-10.069 26.55-17.927 7.858-7.858 13.82-16.9 17.927-26.55l17.202 12.582c10.835 7.926 21.19 16.806 30.776 26.391l.724.724c-28.479.681-53.917 13.847-71.049 34.22zm99.435-121.033c.937 10.505.806 21.048-.371 31.454-2.936-4.905-4.452-10.604-4.261-16.403.178-5.409 1.792-10.577 4.632-15.051zm10.758-54.149c-.063 14.133-5.65 27.372-15.731 37.277-19.796 17.508-18.577 50.262 1.281 67.23-2.46 10.255-5.966 20.258-10.475 29.837l-4.525-4.525c-15.227-15.767-35.91-30.482-53.658-43.343 2.68-12.102 2.68-24.674 0-36.776l21.162-15.479c13.162-9.562 25.581-20.67 37.027-32.395.425.903.847 1.809 1.256 2.722 1.663 3.713 6.018 5.376 9.734 3.712 3.713-1.662 5.375-6.02 3.712-9.734-3.264-7.288-7.026-14.302-11.257-21.019l8.113-12.755c8.692 9.71 13.42 22.112 13.361 35.248zm-31.187-82.708 16.386 16.386c1.349 1.348 1.575 3.412.552 5.021l-16.363 25.724c-4.482-5.815-9.349-11.365-14.603-16.619-5.325-5.325-10.921-10.216-16.739-14.686l11.643-7.406 13.084 13.084c2.877 2.877 7.541 2.876 10.418-.001s2.877-7.541-.001-10.418l-10.766-10.766c1.849-1.5 4.548-2.265 6.389-.319zm-64.611-15.054c12.874-.08 25.062 4.496 34.691 12.88l-13.955 8.877c-12.505-7.85-25.818-13.911-39.57-18.196 5.925-2.302 12.28-3.533 18.834-3.561zm-54.953 11.246c-4.286 2.534-9.159 3.976-14.247 4.143-5.669.185-11.234-1.257-16.06-4.06 10.075-1.004 20.229-1.035 30.307-.083zm-84.646-10.215h.24c5.991.026 11.817 1.056 17.301 2.989-13.48 4.337-26.518 10.404-38.775 18.182l-13.139-8.358c9.553-8.286 21.606-12.813 34.373-12.813zm-82.198 30.409 16.386-16.386c1.349-1.347 3.413-1.574 5.022-.552l26.507 16.861c-5.591 4.338-10.974 9.07-16.105 14.202-5.595 5.595-10.706 11.491-15.356 17.628l-7.455-11.719 14.297-14.297c2.877-2.878 2.877-7.541 0-10.419-2.878-2.876-7.541-2.876-10.419 0l-11.98 11.98c-1.552-2.072-3.254-5.12-.897-7.298zm-13.262 64.309c-.054-12.298 4.084-23.954 11.743-33.358l8.91 14.007c-7.379 11.936-13.146 24.592-17.299 37.656-2.17-5.774-3.326-11.947-3.354-18.305zm-1.032 139.358c.03-6.764 1.338-13.318 3.786-19.405 4.259 13.976 10.343 27.511 18.272 40.216l-8.977 14.112c-8.51-9.66-13.138-21.93-13.081-34.923zm35.701 83.293c-1.607 1.023-3.673.797-5.021-.551l-16.385-16.387c-1.349-1.348-1.576-3.412-.553-5.021l17.419-27.383c4.539 5.94 9.514 11.651 14.942 17.079 5.338 5.338 11.009 10.297 16.966 14.854l-11.135 7.083-12.744-12.743c-2.877-2.877-7.541-2.877-10.418.001-2.877 2.877-2.877 7.541.001 10.418l10.425 10.425zm62.063 13.488c-13.042.059-25.384-4.613-35.063-13.201l13.51-8.594c12.497 7.824 25.98 14.002 40.1 18.346-5.843 2.23-12.1 3.421-18.547 3.449zm55.131-11.353c4.242-2.468 9.05-3.872 14.066-4.038 5.535-.178 10.946 1.187 15.673 3.842-9.931 1.022-19.89 1.075-29.739.196zm61.056 14.009c0-44.727 36.387-81.114 81.114-81.114s81.115 36.387 81.115 81.114-36.388 81.114-81.115 81.114-81.114-36.388-81.114-81.114zm126.788 144.455-38.813-29.696c-4.039-3.089-9.682-3.089-13.726.002l-38.81 29.694v-60.207c13.586 7.395 29.148 11.6 45.674 11.6s32.088-4.204 45.674-11.599v60.206z" fill="#f26522" class="color000 svgShape"></path><path d="m312.804 347.391 21.492 15.543-8.251 25.208c-1.599 4.886.121 10.199 4.28 13.221 4.159 3.023 9.744 3.016 13.897-.015l21.424-15.637 21.423 15.637c4.153 3.031 9.736 3.038 13.896.016s5.88-8.336 4.281-13.222l-8.251-25.207 21.494-15.545c4.165-3.013 5.895-8.323 4.307-13.212-1.587-4.881-6.095-8.154-11.225-8.154-.009 0-.018 0-.027 0l-26.523.058-8.142-25.244c-1.579-4.893-6.094-8.181-11.235-8.18-5.14 0-9.655 3.288-11.232 8.181l-8.142 25.243-26.523-.058c-.009 0-.017 0-.027 0-5.13 0-9.639 3.275-11.225 8.155-1.589 4.89.143 10.199 4.309 13.212zm35.571-6.572h.03c5.142 0 9.654-3.284 11.232-8.18l6.01-18.632 6.009 18.631c1.579 4.897 6.09 8.181 11.23 8.181h.031l19.577-.042-15.862 11.47c-4.176 3.019-5.906 8.338-4.303 13.237l6.09 18.606-15.815-11.543c-4.161-3.035-9.751-3.035-13.913 0-.001 0-.002.001-.003.002l-15.814 11.542 6.09-18.605c1.605-4.899-.124-10.22-4.299-13.237l-15.864-11.472z" fill="#f26522" class="color000 svgShape"></path></svg></g></svg>