<svg width="26" height="27" viewBox="0 0 26 27" fill="none" xmlns="http://www.w3.org/2000/svg">
<path d="M10.2512 10.9303C9.16997 10.9303 8.11302 10.6096 7.21411 10.0087C6.3152 9.40781 5.61472 8.55379 5.20132 7.5547C4.78791 6.5556 4.68016 5.45633 4.89169 4.39597C5.10322 3.33562 5.62452 2.36184 6.38965 1.59785C7.15477 0.833856 8.12932 0.31399 9.18999 0.10403C10.2507 -0.10593 11.3498 0.00345206 12.3482 0.418336C13.3467 0.83322 14.1997 1.53496 14.7993 2.43476C15.3988 3.33456 15.718 4.39199 15.7164 5.47323C15.7121 6.92062 15.1347 8.30739 14.1105 9.33009C13.0862 10.3528 11.6986 10.9282 10.2512 10.9303ZM10.2512 1.62499C9.49011 1.62499 8.74609 1.85069 8.11325 2.27354C7.48041 2.69639 6.98718 3.2974 6.69591 4.00058C6.40465 4.70375 6.32844 5.4775 6.47693 6.22399C6.62541 6.97047 6.99192 7.65616 7.53011 8.19435C8.06829 8.73253 8.75398 9.09904 9.50047 9.24753C10.247 9.39601 11.0207 9.31981 11.7239 9.02854C12.4271 8.73728 13.0281 8.24404 13.4509 7.6112C13.8738 6.97836 14.0995 6.23434 14.0995 5.47323C14.0995 4.45262 13.694 3.4738 12.9723 2.75212C12.2507 2.03043 11.2718 1.62499 10.2512 1.62499Z" fill="#f26522"/>
<path d="M11.6579 24.5689C11.4812 24.3921 11.3449 24.1792 11.2584 23.9447C11.1719 23.7103 11.1371 23.4598 11.1567 23.2107H1.61691V18.5378C2.76322 17.3147 4.1536 16.3458 5.69805 15.6941C7.24251 15.0423 8.90662 14.7221 10.5827 14.7543H11.1647C11.1276 14.4832 11.1536 14.2072 11.2405 13.9478C11.3274 13.6884 11.473 13.4526 11.666 13.2586L11.763 13.1697C11.383 13.1697 10.9545 13.1212 10.5827 13.1212C8.61035 13.0744 6.65229 13.4664 4.85005 14.2689C3.04781 15.0715 1.44643 16.2645 0.161691 17.7617C0.0567356 17.9016 0 18.0719 0 18.2468V23.2107C0 23.6395 0.170352 24.0508 0.473581 24.354C0.77681 24.6572 1.18808 24.8276 1.61691 24.8276H11.8843L11.6579 24.5689Z" fill="#f26522"/>
<path d="M20.1062 12.1268C20.1462 12.1185 20.1875 12.1185 20.2275 12.1268C20.1874 12.1195 20.1463 12.1195 20.1062 12.1268Z" fill="#f26522"/>
<path d="M25.6118 17.8102L23.9949 17.317C23.8793 16.9216 23.7222 16.5394 23.526 16.1771L24.3345 14.6734C24.3608 14.6132 24.3671 14.5462 24.3526 14.4822C24.338 14.4182 24.3033 14.3605 24.2536 14.3177L23.0814 13.1454C23.037 13.0974 22.9778 13.0657 22.9133 13.0555C22.8488 13.0452 22.7827 13.057 22.7256 13.0888L21.2381 13.8973C20.8718 13.6914 20.4841 13.526 20.082 13.4041L19.5888 11.7872C19.5679 11.7277 19.5282 11.6766 19.4757 11.6416C19.4232 11.6066 19.3608 11.5896 19.2978 11.5932H17.6405C17.5768 11.5924 17.5147 11.6126 17.4636 11.6506C17.4124 11.6885 17.3752 11.7422 17.3575 11.8034L16.8644 13.4203C16.4594 13.5381 16.069 13.7008 15.7002 13.9054L14.2288 13.0969C14.173 13.0657 14.1082 13.0542 14.0451 13.0645C13.982 13.0748 13.9242 13.1062 13.8812 13.1535L12.6847 14.3177C12.6403 14.3644 12.6117 14.4239 12.603 14.4877C12.5943 14.5515 12.6059 14.6165 12.6361 14.6734L13.4446 16.1448C13.2308 16.5092 13.0599 16.8971 12.9353 17.3009L11.3184 17.7859C11.2572 17.8036 11.2035 17.8409 11.1656 17.892C11.1276 17.9431 11.1074 18.0052 11.1082 18.0689V19.7262C11.1129 19.7846 11.1357 19.8401 11.1734 19.885C11.211 19.9299 11.2617 19.962 11.3184 19.9768L12.9353 20.47C13.0548 20.8666 13.2174 21.2488 13.4203 21.6099L12.6119 23.1541C12.581 23.2094 12.5691 23.2733 12.5778 23.336C12.5866 23.3988 12.6156 23.4569 12.6604 23.5017L13.8327 24.674C13.8784 24.7196 13.9375 24.7497 14.0014 24.7599C14.0652 24.77 14.1307 24.7598 14.1884 24.7305L15.7002 23.9221C16.06 24.1156 16.4394 24.2701 16.832 24.3829L17.3171 25.9998C17.337 26.0597 17.3748 26.1119 17.4254 26.1495C17.476 26.1871 17.537 26.2083 17.6 26.21H19.2574C19.3207 26.2095 19.3823 26.1888 19.4331 26.151C19.484 26.1133 19.5215 26.0603 19.5403 25.9998L20.0335 24.3425C20.4209 24.2296 20.795 24.0751 21.1492 23.8817L22.6771 24.6901C22.7333 24.72 22.7977 24.7306 22.8605 24.7204C22.9233 24.7102 22.981 24.6797 23.0248 24.6335L24.2536 23.534C24.2867 23.4866 24.3044 23.4302 24.3044 23.3723C24.3044 23.3145 24.2867 23.2581 24.2536 23.2107L23.4452 21.6908C23.6414 21.3341 23.7986 20.9574 23.9141 20.567L25.531 20.0739C25.5921 20.0562 25.6458 20.0189 25.6838 19.9678C25.7218 19.9167 25.7419 19.8546 25.7412 19.7909V18.0931C25.7486 18.0386 25.7404 17.983 25.7175 17.9329C25.6946 17.8828 25.6579 17.8403 25.6118 17.8102ZM18.4732 21.5937C17.9384 21.5953 17.4153 21.4381 16.97 21.142C16.5247 20.846 16.1773 20.4243 15.972 19.9306C15.7666 19.4369 15.7124 18.8933 15.8164 18.3687C15.9203 17.8442 16.1776 17.3623 16.5558 16.9842C16.9339 16.6061 17.4157 16.3487 17.9403 16.2448C18.4648 16.1409 19.0084 16.195 19.5022 16.4004C19.9959 16.6058 20.4175 16.9531 20.7136 17.3984C21.0097 17.8437 21.1669 18.3669 21.1653 18.9016C21.1632 19.6149 20.8789 20.2985 20.3745 20.8029C19.87 21.3073 19.1865 21.5916 18.4732 21.5937Z" fill="#f26522"/>
</svg>
