<svg fill="none" xmlns="http://www.w3.org/2000/svg" viewBox="0 0 56 54">
    <path d="M53 53H3a2 2 0 01-2-2V27c0-1.1.9-2 2-2h50a2 2 0 012 2v24a2 2 0 01-2 2z" fill="#fff"></path>
    <path fill-rule="evenodd" clip-rule="evenodd" d="M3 54h50a3 3 0 003-3V27a3 3 0 00-3-3H3a3 3 0 00-3 3v24a3 3 0 003 3zM2 27a1 1 0 011-1h50a1 1 0 011 1v24a1 1 0 01-1 1H3a1 1 0 01-1-1V27z" fill="#f26522"></path>
    <path d="M7 34a.99.99 0 01-.71-.29c-.09-.1-.16-.21-.21-.33A1 1 0 016 33a1 1 0 01.08-.38c.05-.12.12-.23.21-.33a1.05 1.05 0 011.42 0c.09.1.16.2.21.33a1 1 0 01-.21 1.09c-.1.09-.21.16-.33.21A1 1 0 017 34zM13 34a1 1 0 01-.71-.29 1.5 1.5 0 01-.22-.33A.99.99 0 0112 33c0-.13.02-.26.08-.38.05-.13.12-.23.21-.33a1.05 1.05 0 011.42 0c.09.1.16.21.21.33A1 1 0 0114 33a1 1 0 01-.08.38c-.05.12-.12.23-.21.33-.1.09-.21.16-.33.21A1 1 0 0113 34zM19 34a1 1 0 01-.71-.29c-.09-.1-.16-.21-.21-.33A1 1 0 0118 33a1 1 0 01.08-.38c.05-.13.12-.23.21-.33a1.05 1.05 0 011.42 0c.09.1.16.2.21.33a1 1 0 01-.21 1.09A1 1 0 0119 34zM25 34a1 1 0 01-.71-.29 1.5 1.5 0 01-.22-.33A.99.99 0 0124 33c0-.13.02-.26.08-.38.05-.12.12-.23.21-.33a1.05 1.05 0 011.42 0c.09.1.16.21.21.33A1 1 0 0126 33a1 1 0 01-.08.38c-.05.12-.12.23-.21.33-.1.09-.21.16-.33.21A1 1 0 0125 34zM31 34a1 1 0 01-.71-.29c-.09-.1-.16-.21-.21-.33A1 1 0 0130 33a1 1 0 01.08-.38c.05-.13.12-.23.21-.33a1.05 1.05 0 011.42 0c.09.1.16.2.21.33a1 1 0 01-.21 1.09A1 1 0 0131 34zM37 34a1 1 0 01-.71-.29 1.5 1.5 0 01-.22-.33A.99.99 0 0136 33c0-.13.02-.26.08-.38.05-.12.12-.23.21-.33a1.05 1.05 0 011.42 0c.09.1.16.21.21.33A1 1 0 0138 33a1 1 0 01-.08.38c-.05.12-.12.23-.21.33A1 1 0 0137 34zM43 34a1 1 0 01-.71-.29c-.09-.1-.16-.21-.21-.33A1 1 0 0142 33a1 1 0 01.08-.38c.05-.13.12-.23.21-.33a1.05 1.05 0 011.42 0c.09.1.16.2.21.33a1 1 0 01-.21 1.09A1 1 0 0143 34zM49 34a1 1 0 01-.71-.29 1.5 1.5 0 01-.22-.33A.99.99 0 0148 33c0-.13.02-.26.08-.38.05-.12.12-.23.21-.33a1.05 1.05 0 011.42 0c.09.1.16.21.21.33A1 1 0 0150 33a1 1 0 01-.08.38c-.05.12-.12.23-.21.33A1 1 0 0149 34zM13 40a1 1 0 01-.38-.08 1.03 1.03 0 01-.33-.21.99.99 0 01-.21-1.09c.05-.13.12-.23.21-.33a1 1 0 011.27-.12l.15.12c.09.1.16.2.21.33a1 1 0 01-.21 1.09A1 1 0 0113 40zM7 40a.99.99 0 01-.92-1.38c.05-.13.12-.23.21-.33l.15-.12a.74.74 0 01.18-.09.65.65 0 01.18-.06c.33-.07.67.04.91.27.09.09.16.2.21.33a1 1 0 01-.21 1.09c-.1.09-.21.16-.33.21A1 1 0 017 40zM19 40a1 1 0 01-.38-.08 1.15 1.15 0 01-.33-.21A.99.99 0 0118 39c0-.26.1-.52.29-.71a1 1 0 011.63.33.96.96 0 01-.22 1.09 1 1 0 01-.32.21A1 1 0 0119 40zM25 40a1 1 0 01-.38-.08 1.03 1.03 0 01-.33-.21.99.99 0 01-.21-1.09c.05-.13.12-.23.21-.33a1.05 1.05 0 011.42 0c.18.19.29.45.29.71a1 1 0 01-1 1zM31 40a1 1 0 01-.38-.08 1.15 1.15 0 01-.33-.21A.99.99 0 0130 39c0-.26.1-.52.29-.71.23-.23.58-.34.91-.27l.18.06.18.09.15.12c.18.19.29.45.29.71a1 1 0 01-.29.71c-.1.09-.21.16-.33.21A1 1 0 0131 40zM37 40a.99.99 0 01-1-1c0-.26.1-.52.29-.71.1-.09.2-.16.33-.21a1 1 0 011.09.21c.09.1.16.2.21.33a1 1 0 01-.21 1.09c-.1.09-.21.16-.33.21A1 1 0 0137 40zM43 40a1 1 0 01-1-1c0-.26.1-.52.29-.71l.15-.12a.74.74 0 01.18-.09.92.92 0 01.76 0l.18.09.15.12c.18.19.29.45.29.71a1 1 0 01-1 1zM49 40a1 1 0 01-.38-.08 1.15 1.15 0 01-.33-.21.99.99 0 01-.21-1.09c.05-.13.12-.23.21-.33l.15-.12a.74.74 0 01.18-.09.65.65 0 01.18-.06c.32-.07.67.04.91.27.09.1.16.2.21.33a1 1 0 01-.21 1.09c-.1.09-.21.16-.33.21A1 1 0 0149 40zM7 46a1 1 0 01-.38-.08 1.15 1.15 0 01-.33-.21A.99.99 0 016 45l.02-.2a.65.65 0 01.06-.18.74.74 0 01.09-.18l.12-.15c.23-.23.58-.34.91-.27l.18.06.18.09.15.12.12.15.09.18.06.18.02.2a1 1 0 01-1 1zM13 46a.99.99 0 01-1-1l.02-.2a.65.65 0 01.06-.18.74.74 0 01.09-.18l.12-.15c.1-.09.2-.16.33-.21a1 1 0 011.09.21l.12.15.09.18.06.18.02.2a1 1 0 01-.29.71c-.1.09-.21.16-.33.21A1 1 0 0113 46zM37 46H19a1 1 0 110-2h18a1 1 0 110 2zM27 26a1 1 0 01-1-1v-8a5 5 0 015-5h6a3 3 0 003-3V1a1 1 0 112 0v8a5 5 0 01-5 5h-6a3 3 0 00-3 3v8a1 1 0 01-1 1zM43 46a.99.99 0 01-1-1l.02-.2a.65.65 0 01.06-.18.74.74 0 01.09-.18l.12-.15a1 1 0 011.26-.12c.06.03.11.08.16.12l.12.15.09.18.06.18.02.2a1 1 0 01-.29.71c-.1.09-.21.16-.33.21A1 1 0 0143 46zM49 46a1 1 0 01-.38-.08 1.15 1.15 0 01-.33-.21A.99.99 0 0148 45l.02-.2a.65.65 0 01.06-.18.74.74 0 01.09-.18l.12-.15a1.05 1.05 0 011.42 0l.12.15.09.18.06.18.02.2a1 1 0 01-1 1z" fill="#f26522"></path>
</svg>
