<svg xmlns="http://www.w3.org/2000/svg" viewBox="0 0 44 60">
    <g fill="none">
        <path fill="#f0e6b9" d="M3 53h4v6H3z"></path>
        <path d="M7 60H3a1 1 0 01-1-1v-6a1 1 0 011-1h4a1 1 0 011 1v6a1 1 0 01-1 1zm-3-2h2v-4H4v4z" fill="#f26522"></path>
        <path fill="#f0e6b9" d="M37 53h4v6h-4z"></path>
        <path d="M41 60h-4a1 1 0 01-1-1v-6a1 1 0 011-1h4a1 1 0 011 1v6a1 1 0 01-1 1zm-3-2h2v-4h-2v4z" fill="#f26522"></path>
        <path fill="#FFF" d="M3 19h38v34H3z"></path>
        <path d="M41 54H3a1 1 0 01-1-1V19a1 1 0 011-1h38a1 1 0 011 1v34a1 1 0 01-1 1zM4 52h36V20H4v32z" fill="#f26522"></path>
        <path d="M41 15H3v-4A10 10 0 0113 1h18a10 10 0 0110 10v4z" fill="#FFF"></path>
        <path d="M41 16H3a1 1 0 01-1-1v-4A11 11 0 0113 0h18a11 11 0 0111 11v4a1 1 0 01-1 1zM4 14h36v-3c0-4.96-4.04-9-9-9H13c-4.96 0-9 4.04-9 9v3z" fill="#f26522"></path>
        <path fill="#FFF" d="M1 15h42v4H1z"></path>
        <path d="M43 20H1a1 1 0 01-1-1v-4a1 1 0 011-1h42a1 1 0 011 1v4a1 1 0 01-1 1zM2 18h40v-2H2v2zm31-8H11a1 1 0 110-2h22a1 1 0 110 2z" fill="#f26522"></path>
        <path d="M32 43H12a1 1 0 01-1-1V30a1 1 0 011-1h20a1 1 0 011 1v12a1 1 0 01-1 1z" fill="#f0e6b9"></path>
        <path d="M12 43h20a1 1 0 00.73-.32L24.06 36h-4.12l-8.48 6.82c.16.1.34.18.54.18z" fill="#FFF"></path>
        <path d="M32 44H12c-.38 0-.74-.12-1.1-.35a1 1 0 01-.07-1.61l8.48-6.82a1 1 0 01.63-.22h4.12a1 1 0 01.61.2l8.67 6.69a1 1 0 01.12 1.47A2 2 0 0132 44zm-17.93-2h16.14l-6.49-5H20.3l-6.22 5zm-2.06-.01L12 42l.01-.01z" fill="#f26522"></path>
        <path d="M32.66 29.32l-9.91 7.71c-.43.34-1.06.34-1.5 0l-9.9-7.71" fill="#FFF"></path>
        <path d="M22 38.28a2.2 2.2 0 01-1.36-.46l-9.91-7.71a1 1 0 011.23-1.58l9.9 7.71c.08.06.2.06.27 0l9.91-7.71a1 1 0 011.23 1.58l-9.91 7.71c-.4.3-.88.46-1.36.46z" fill="#f26522"></path>
        <path d="M32 44H12a2 2 0 01-2-2V30c0-1.1.9-2 2-2h20a2 2 0 012 2v12a2 2 0 01-2 2zM12 30v12h20V30H12z" fill="#f26522"></path>
        <path d="M32.66 43.68a.99.99 0 01-.61-.2l-8.6-6.7a1 1 0 111.23-1.57l8.6 6.69a1 1 0 01-.62 1.78zm-21.32 0a1 1 0 01-.61-1.78l8.6-6.69a1 1 0 111.22 1.58l-8.6 6.68a1 1 0 01-.6.21z" fill="#f26522"></path>
    </g>
</svg>