<svg fill="none" xmlns="http://www.w3.org/2000/svg" viewBox="0 0 56 56">
    <path fill-rule="evenodd" clip-rule="evenodd" d="M0 19.27a19.27 19.27 0 1038.54 0 19.27 19.27 0 00-38.54 0zm5.5 0a13.76 13.76 0 1127.53 0 13.76 13.76 0 01-27.52 0zM44.3 54a5.5 5.5 0 003.87 1.63 5.5 5.5 0 003.88-1.62l1.96-1.96a5.5 5.5 0 000-7.76l-8.67-8.67a5.5 5.5 0 00-7.77 0l-1.95 1.95a5.5 5.5 0 000 7.77L44.29 54zm-4.8-12.54l1.96-1.96 8.67 8.67-1.96 1.96-8.67-8.67z" fill="#f26522"></path>
    <path d="M38.54 41.29c-.73 0-1.44-.28-1.96-.8l-7.6-7.46A2.86 2.86 0 1133.04 29l7.6 7.6a2.75 2.75 0 01-2.1 4.7z" fill="#f26522"></path>
</svg>