<svg width="42" height="42" viewBox="0 0 42 42" fill="none" xmlns="http://www.w3.org/2000/svg">
<path fill-rule="evenodd" clip-rule="evenodd" d="M20.9997 0C18.2502 0 15.9998 2.25037 15.9998 4.99994C15.9998 7.40777 17.7262 9.43217 20.0017 9.89831V16.0506C17.1687 16.2673 14.5915 17.3913 12.5545 19.1384L9.1659 15.7478C9.6899 14.9576 9.99988 14.0135 9.99988 12.9998C9.99988 10.2503 7.74948 7.9999 4.99994 7.9999C2.25039 7.9999 9.99988e-08 10.2503 0 12.9998C9.99988e-08 15.7494 2.25039 17.9998 4.99994 17.9998C6.01424 17.9998 6.95937 17.6904 7.7499 17.1658L11.1385 20.5544C9.18763 22.8289 7.99964 25.7754 7.9999 28.9996C8.00041 35.3356 12.5865 40.7599 18.8337 41.8159C18.9633 41.8377 19.0958 41.8338 19.2239 41.8044C19.3519 41.7749 19.4728 41.7206 19.5798 41.6444C19.6869 41.5682 19.7778 41.4717 19.8475 41.3604C19.9172 41.2491 19.9643 41.1251 19.9861 40.9956C20.0079 40.8661 20.004 40.7335 19.9746 40.6055C19.9452 40.4775 19.8908 40.3565 19.8146 40.2495C19.7385 40.1425 19.6419 40.0515 19.5306 39.9818C19.4193 39.9121 19.2953 39.865 19.1658 39.8433C16.4897 39.3909 14.1807 37.9987 12.5487 36.0406L14.2947 34.2945C14.4869 34.1025 14.7394 33.9976 14.9979 33.9976H26.9997C27.2644 33.9976 27.5164 34.1025 27.7086 34.2945L29.4489 36.0347C27.8167 37.99 25.5072 39.3796 22.8337 39.8315C22.7042 39.8533 22.5802 39.9004 22.4688 39.9701C22.3575 40.0398 22.261 40.1308 22.1848 40.2378C22.1086 40.3448 22.0542 40.4657 22.0248 40.5938C21.9954 40.7218 21.9915 40.8543 22.0133 40.9839C22.0351 41.1134 22.0822 41.2374 22.1519 41.3487C22.2216 41.4601 22.3126 41.5566 22.4196 41.6327C22.5266 41.7089 22.6476 41.7632 22.7756 41.7927C22.9036 41.8221 23.0362 41.826 23.1657 41.8042C29.4082 40.749 33.9962 35.3315 33.9996 28.9996C34.0013 25.7736 32.8138 22.8253 30.8609 20.5505L34.2476 17.1638C35.0386 17.6893 35.9843 17.9998 36.9995 17.9998C39.7491 17.9998 41.9995 15.7494 41.9995 12.9998C41.9995 10.2503 39.7491 7.9999 36.9995 7.9999C34.25 7.9999 31.9996 10.2503 31.9996 12.9998C31.9996 14.0141 32.309 14.9593 32.8336 15.7498L29.4469 19.1365C27.4106 17.3907 24.8328 16.268 22.0017 16.0506V9.89831C24.2753 9.43071 25.9997 7.40644 25.9997 4.99994C25.9997 2.25037 23.7493 0 20.9997 0ZM20.9997 1.99997C22.6684 1.99997 23.9997 3.33126 23.9997 4.99994C23.9997 6.66862 22.6684 7.9999 20.9997 7.9999C19.3311 7.9999 17.9998 6.66862 17.9998 4.99994C17.9998 3.33126 19.3311 1.99997 20.9997 1.99997ZM4.99994 9.99987C6.66862 9.99987 7.9999 11.3312 7.9999 12.9998C7.9999 14.6685 6.66862 15.9998 4.99994 15.9998C3.33126 15.9998 1.99998 14.6685 1.99997 12.9998C1.99998 11.3312 3.33126 9.99987 4.99994 9.99987ZM36.9995 9.99987C38.6682 9.99987 39.9995 11.3312 39.9995 12.9998C39.9995 14.6685 38.6682 15.9998 36.9995 15.9998C35.3309 15.9998 33.9996 14.6685 33.9996 12.9998C33.9996 11.3312 35.3309 9.99987 36.9995 9.99987ZM20.9997 17.9998C27.0866 17.9998 32.0029 22.9134 31.9996 28.9996C31.9986 30.9349 31.4886 32.7624 30.5973 34.355L29.1227 32.8804C28.5622 32.32 27.7993 31.9976 26.9997 31.9976H25.4567C26.4122 30.9339 26.9997 29.534 26.9997 27.9996C26.9997 24.6978 24.2996 21.9978 20.9978 21.9978C17.696 21.9978 14.9959 24.6978 14.9959 27.9996C14.9959 29.5343 15.5851 30.9338 16.5408 31.9976H14.9979C14.1971 31.9976 13.438 32.3234 12.8807 32.8804L11.4002 34.3609C10.5092 32.7664 10 30.9368 9.99988 28.9996C9.99938 22.9128 14.9128 17.9998 20.9997 17.9998ZM20.9978 23.9977C23.2187 23.9977 24.9997 25.7787 24.9997 27.9996C24.9997 30.2206 23.2187 31.9996 20.9978 31.9996C18.7768 31.9996 16.9978 30.2206 16.9978 27.9996C16.9978 25.7787 18.7768 23.9977 20.9978 23.9977Z" fill="#f26522"/>
</svg>
