<svg fill="none" xmlns="http://www.w3.org/2000/svg" viewBox="0 0 59 59">
    <path fill-rule="evenodd" clip-rule="evenodd" d="M57.01 4h-1v37a1 1 0 01-1 1H38.63l7.28 14.55a1 1 0 11-1.8.9L36.4 42h-6.38v13a1 1 0 11-2 0V42h-6.38L13.9 57.45a1 1 0 11-1.79-.9L19.4 42H3a1 1 0 01-1-1V4H1a1 1 0 110-2h27V1a1 1 0 112 0v1h27.01a1 1 0 110 2zm-53 0v2h50V4h-50zm0 36V8h50v32h-50zm3-28h2a1 1 0 110 2H7a1 1 0 110-2zm7.89 3.21a7.1 7.1 0 00-1.56-1.71 1 1 0 00-1.24 1.57c.44.34.81.76 1.12 1.23a1 1 0 001.68-1.09zm.1 3.36a1 1 0 011 1v2a1 1 0 11-2 0v-2a1 1 0 011-1zm1 7a1 1 0 10-2 0v2a1 1 0 102 0v-2zm-.87 5.01a1 1 0 011.33.5c.23.5.54.97.93 1.37a1 1 0 11-1.45 1.38 6.96 6.96 0 01-1.3-1.92 1 1 0 01.5-1.33zM24.01 29a3 3 0 10-6 0 3 3 0 006 0zm-3 1a1 1 0 100-2 1 1 0 000 2zm.95 3.91c-.55.1-1.13.12-1.66.04a1 1 0 10-.28 1.98 7.14 7.14 0 002.31-.05 1 1 0 10-.37-1.97zm3.7-3.05a1 1 0 111.85.74c-.3.73-.7 1.4-1.21 1.98a1 1 0 11-1.51-1.3c.37-.43.66-.9.86-1.42zm.35-5.57v2a1 1 0 102 0v-2a1 1 0 00-2 0zm1.3-10.35c.45-.64 1-1.19 1.64-1.64a1 1 0 011.16 1.63 5 5 0 00-1.17 1.17 1 1 0 01-1.63-1.16zM36 19a3 3 0 10-6 0 3 3 0 006 0zm-3 1a1 1 0 100-2 1 1 0 000 2zm.24-6c.55.03 1.1.15 1.62.36a1 1 0 10.74-1.86 6.98 6.98 0 00-2.27-.5 1 1 0 10-.1 2zm4.46 1.13a1 1 0 011.37.37c.39.68.66 1.41.8 2.18a1 1 0 01-1.96.37c-.1-.54-.3-1.07-.58-1.55a1 1 0 01.37-1.37zm2.3 6.73a1 1 0 10-2 0v2a1 1 0 102 0v-2zm-.8 5a1 1 0 011.35.43 5 5 0 001 1.33 1 1 0 11-1.38 1.45 7 7 0 01-1.4-1.86 1 1 0 01.44-1.35zm5.8 3.14c-.16 0-.32 0-.47-.02a1 1 0 10-.2 1.99l.67.03h1.43a1 1 0 100-2h-1.43zm4.46 1.13l-.01-.05a.27.27 0 01-.02-.08c0-.03 0-.05.02-.08v-.05l-2.16-2.16a1 1 0 011.42-1.42l3 3a1 1 0 010 1.42l-3 3a1 1 0 01-1.42-1.42l2.17-2.16zM28 21.3v-2a1 1 0 00-2 0v2a1 1 0 002 0z" fill="#f26522"></path>
</svg>